<svg width="15" height="21" viewBox="0 0 15 21" xmlns="http://www.w3.org/2000/svg" xmlns:xlink="http://www.w3.org/1999/xlink">
    <defs>
        <path d="M12.962 2.996h-1.248a.322.322 0 0 1-.322-.322V2.11c0-.888-.722-1.61-1.61-1.61H4.79c-.888 0-1.61.722-1.61 1.61v.564a.322.322 0 0 1-.322.322H1.61c-.889 0-1.61.72-1.61 1.61v1.53c0 .178.144.322.322.322H14.25a.322.322 0 0 0 .322-.322v-1.53c0-.89-.72-1.61-1.61-1.61zm-2.858-.322a.322.322 0 0 1-.322.322H4.79a.322.322 0 0 1-.322-.322V2.11c0-.178.145-.322.322-.322h4.992c.178 0 .322.144.322.322v.564zm2.778 4.589H1.692a.322.322 0 0 0-.323.322V17.89c0 .89.721 1.61 1.61 1.61h8.615c.89 0 1.61-.72 1.61-1.61V7.585a.322.322 0 0 0-.322-.322zM4.67 17.246a.644.644 0 0 1-1.288 0v-7.97a.644.644 0 0 1 1.288 0v7.97zm3.26 0a.644.644 0 0 1-1.288 0v-7.97a.644.644 0 0 1 1.288 0v7.97zm3.26 0a.644.644 0 0 1-1.287 0v-7.97a.644.644 0 0 1 1.288 0v7.97z" id="a"/>
    </defs>
    <use fill="#D0021B" xlink:href="#a" transform="translate(0 .5)" fill-rule="evenodd"/>
</svg>
